<?xml version="1.0" standalone="no"?>
<!DOCTYPE svg PUBLIC "-//W3C//DTD SVG 20010904//EN"
 "http://www.w3.org/TR/2001/REC-SVG-20010904/DTD/svg10.dtd">
<svg version="1.0" xmlns="http://www.w3.org/2000/svg"
 width="400.000000pt" height="400.000000pt" viewBox="0 0 400.000000 400.000000"
 preserveAspectRatio="xMidYMid meet">
<metadata>
Created by potrace 1.11, written by Peter Selinger 2001-2013
</metadata>
<g transform="translate(0.000000,400.000000) scale(0.100000,-0.100000)"
fill="#000000" stroke="none">
<path d="M2383 3436 c-58 -19 -99 -50 -127 -99 -66 -112 -28 -250 85 -312 44
-24 59 -27 119 -23 57 3 77 9 112 34 83 58 121 179 85 267 -45 107 -168 167
-274 133z m112 -110 c86 -36 86 -168 0 -209 -42 -20 -98 -8 -134 28 -37 36
-37 112 -1 150 42 46 79 54 135 31z"/>
<path d="M2065 3199 c-22 -3 -189 -30 -372 -59 l-332 -52 -38 40 c-84 89 -224
69 -267 -38 -22 -56 -20 -98 8 -146 l23 -41 -158 -269 -158 -269 32 -17 c18
-9 35 -13 38 -10 7 7 243 408 289 489 21 37 26 41 52 36 65 -13 162 52 175
118 4 20 13 29 32 33 28 6 717 116 726 116 7 0 5 42 -3 60 -5 12 -17 14 -47 9z"/>
<path d="M3175 3174 c-16 -8 -42 -29 -57 -46 l-27 -31 -151 38 c-86 21 -155
34 -159 29 -5 -5 -11 -21 -15 -35 l-6 -27 156 -38 c107 -26 158 -43 161 -54
17 -55 40 -92 70 -112 l35 -23 -7 -197 -7 -198 41 0 41 0 0 149 c0 202 5 238
38 246 67 17 112 80 112 158 0 49 -26 96 -72 130 -35 26 -114 32 -153 11z"/>
<path d="M1920 2931 c-118 -77 -388 -249 -600 -384 -212 -135 -394 -251 -404
-259 -18 -14 -18 -15 -1 -41 9 -15 21 -27 26 -27 5 0 147 89 316 197 170 108
445 284 613 391 168 107 307 196 310 199 5 5 -26 57 -37 60 -4 1 -105 -60
-223 -136z"/>
<path d="M2636 2947 l-29 -23 178 -255 c97 -140 181 -258 185 -262 9 -10 60
20 60 34 0 5 -57 91 -127 192 -70 100 -151 217 -181 260 -29 42 -54 77 -55 77
-1 0 -15 -11 -31 -23z"/>
<path d="M2183 2888 c-25 -40 -83 -129 -128 -198 -45 -69 -103 -160 -131 -202
l-49 -76 -57 0 c-87 1 -151 -46 -167 -123 l-7 -33 -114 -17 c-63 -9 -214 -31
-335 -49 -121 -18 -223 -35 -226 -39 -3 -3 -2 -21 3 -40 8 -29 12 -33 36 -28
15 3 166 26 336 52 l309 46 36 -33 c40 -38 80 -58 114 -58 18 0 25 -9 34 -37
16 -57 121 -355 127 -360 3 -3 20 0 39 6 l34 12 -68 191 c-38 105 -69 197 -69
203 0 7 7 19 17 26 23 20 53 88 53 124 0 17 -9 48 -19 69 l-20 38 96 146 c294
450 271 411 252 424 -48 31 -47 32 -96 -44z"/>
<path d="M2350 2898 c0 -2 -49 -266 -109 -588 -59 -322 -105 -588 -102 -591 3
-4 20 -10 36 -13 l31 -7 37 203 c150 816 179 979 176 982 -6 5 -69 18 -69 14z"/>
<path d="M3140 2361 c-123 -38 -186 -145 -159 -271 26 -124 179 -204 294 -156
91 38 145 118 145 213 -1 142 -147 254 -280 214z m136 -132 c50 -47 48 -123
-6 -171 -76 -69 -203 -1 -186 100 6 37 37 78 71 93 32 14 95 3 121 -22z"/>
<path d="M546 2260 c-54 -27 -81 -55 -105 -106 -70 -148 37 -317 200 -317 109
0 193 66 219 173 25 102 -33 213 -132 254 -51 22 -134 20 -182 -4z m167 -110
c31 -25 51 -81 42 -118 -3 -15 -18 -39 -32 -54 -73 -76 -193 -22 -193 88 0 28
8 44 34 70 29 29 41 34 79 34 29 0 53 -7 70 -20z"/>
<path d="M2650 1807 c-135 -95 -256 -179 -268 -189 -24 -16 -24 -22 7 -67 7
-11 67 27 277 174 148 104 271 190 274 192 6 5 -26 57 -37 60 -4 1 -118 -76
-253 -170z"/>
<path d="M947 1925 l-17 -35 67 -30 c36 -16 67 -30 68 -30 2 0 68 -31 147 -69
247 -118 557 -261 567 -261 9 0 36 58 30 64 -2 2 -98 48 -214 101 -115 54
-282 131 -370 172 -88 41 -176 81 -195 90 -19 9 -42 19 -51 24 -12 6 -20 0
-32 -26z"/>
<path d="M3100 1817 c0 -2 -18 -100 -40 -218 -22 -117 -40 -217 -40 -221 0 -5
-7 -8 -15 -8 -27 0 -79 -31 -106 -62 l-26 -31 -218 41 c-120 23 -220 41 -221
39 -1 -1 -4 -18 -8 -37 l-6 -35 178 -33 c284 -54 274 -51 270 -74 -4 -29 -836
-514 -858 -500 -24 15 -22 39 19 207 22 88 39 161 38 162 -1 0 -18 4 -38 8
l-35 7 -34 -139 c-47 -198 -49 -203 -66 -203 -8 0 -37 -9 -64 -21 l-48 -21
-164 98 c-89 53 -257 153 -373 222 -115 69 -215 130 -222 136 -32 29 7 39 368
97 200 32 370 58 376 59 9 0 11 10 6 33 -3 17 -8 34 -10 36 -2 3 -172 -22
-379 -54 l-375 -58 -15 22 c-28 40 -58 62 -100 72 l-40 10 -37 157 c-59 250
-53 234 -90 226 -18 -3 -34 -8 -36 -10 -2 -2 18 -90 43 -197 l47 -194 -34 -34
c-96 -96 -45 -255 88 -275 38 -5 54 -2 96 19 l49 26 63 -38 c34 -21 206 -124
383 -229 l320 -190 -4 -37 c-11 -92 65 -179 156 -179 92 1 153 58 162 153 l5
53 80 48 c44 26 232 136 418 245 l338 198 43 -22 c132 -65 268 34 241 175 -4
24 -21 50 -49 77 l-42 42 40 218 c34 186 37 220 25 228 -13 8 -59 13 -59 6z"/>
<path d="M2060 1601 c-108 -22 -180 -109 -180 -218 1 -131 91 -223 220 -223
128 0 220 92 220 220 0 72 -22 122 -76 169 -54 48 -116 65 -184 52z m110 -130
c14 -10 31 -36 38 -58 25 -77 -27 -146 -109 -145 -79 1 -129 66 -109 141 22
82 111 113 180 62z"/>
</g>
</svg>
